<mxfile host="app.diagrams.net" modified="2024-07-14T10:25:29.172Z" agent="Mozilla/5.0 (Macintosh; Intel Mac OS X 10_15_7) AppleWebKit/537.36 (KHTML, like Gecko) Chrome/125.0.0.0 Safari/537.36" version="24.6.2" etag="Kc0qStc1OIEEn49qHDHp" type="github">
  <diagram name="Page-1" id="p0EKXG3gHglq-wohBUCe">
    <mxGraphModel>
      <root>
        <mxCell id="0" />
        <mxCell id="1" parent="0" />
      </root>
    </mxGraphModel>
  </diagram>
</mxfile>
